<?xml version="1.0" standalone="no"?>
<!DOCTYPE svg PUBLIC "-//W3C//DTD SVG 20010904//EN"
 "http://www.w3.org/TR/2001/REC-SVG-20010904/DTD/svg10.dtd">
<svg version="1.0" xmlns="http://www.w3.org/2000/svg"
 width="512.000000pt" height="512.000000pt" viewBox="0 0 512.000000 512.000000"
 preserveAspectRatio="xMidYMid meet">

<g transform="translate(0.000000,512.000000) scale(0.100000,-0.100000)"
fill="#198754" stroke="none">
<path d="M833 4580 c-146 -21 -235 -88 -275 -206 l-23 -69 -3 -1685 c-2 -1082
1 -1715 7 -1768 22 -177 104 -271 266 -302 44 -8 526 -10 1785 -8 l1725 3 57
22 c94 35 148 90 184 188 18 48 19 121 22 1770 2 1208 -1 1739 -8 1784 -28
161 -123 249 -295 271 -84 11 -3367 11 -3442 0z m2737 -1060 l0 -270 -350 0
-350 0 0 -960 0 -960 -310 0 -310 0 0 960 0 960 -350 0 -350 0 0 270 0 270
1010 0 1010 0 0 -270z"/>
</g>
</svg>
